<svg xmlns="http://www.w3.org/2000/svg" viewBox="0 0 352 100.5"><defs><style>.cls-1{fill:#d9d9d9}.cls-2{fill:#35a8e0}.cls-3{fill:#29235c}</style></defs><circle class="cls-1" cx="50.3" cy="50.3" r="50.3"/><path class="cls-2" d="M23.8 41.6a2.3 2.3 0 0 0 2.3 2.3h74.5a2.3 2.3 0 0 0 0-4.6H26.2a2.3 2.3 0 0 0-2.4 2.3zm0 11.5a2.3 2.3 0 0 0 2.3 2.3h74.5a2.3 2.3 0 0 0 0-4.6H26.2a2.3 2.3 0 0 0-2.4 2.3zm52.8-23a2.3 2.3 0 0 0 2.3 2.3h21.8a2.3 2.3 0 0 0 0-4.6H78.9a2.3 2.3 0 0 0-2.3 2.3zm24.1-13.8H78.9a2.3 2.3 0 0 0 0 4.6h21.8a2.3 2.3 0 0 0 0-4.6zm2.3-9.2a2.3 2.3 0 0 0-2.3-2.3H78.9a2.3 2.3 0 0 0 0 4.6h21.8a2.3 2.3 0 0 0 2.3-2.3zM76.6 87.6a2.3 2.3 0 0 0 2.3 2.3h21.8a2.3 2.3 0 0 0 0-4.6H78.9a2.3 2.3 0 0 0-2.3 2.3zm0-11.5a2.3 2.3 0 0 0 2.3 2.3h21.8a2.3 2.3 0 0 0 0-4.6H78.9a2.3 2.3 0 0 0-2.3 2.3zm0-11.5a2.3 2.3 0 0 0 2.3 2.3h21.8a2.3 2.3 0 0 0 0-4.6H78.9a2.3 2.3 0 0 0-2.3 2.3zM50.3 30.1a2.3 2.3 0 0 0-2.3-2.3H26.2a2.3 2.3 0 0 0 0 4.6h21.7a2.3 2.3 0 0 0 2.4-2.3zm0-11.5a2.3 2.3 0 0 0-2.3-2.3H26.2a2.3 2.3 0 0 0 0 4.6h21.7a2.3 2.3 0 0 0 2.4-2.3zm-2.4-9.2a2.3 2.3 0 0 0 0-4.6H26.2a2.3 2.3 0 0 0 0 4.6zM23.8 87.6a2.3 2.3 0 0 0 2.3 2.3h21.8a2.3 2.3 0 1 0 0-4.6H26.2a2.3 2.3 0 0 0-2.4 2.3zm0-11.5a2.3 2.3 0 0 0 2.3 2.3h21.8a2.3 2.3 0 1 0 0-4.6H26.2a2.3 2.3 0 0 0-2.4 2.3zm2.4-9.2h21.7a2.3 2.3 0 1 0 0-4.6H26.2a2.3 2.3 0 1 0 0 4.6z"/><path class="cls-3" d="M35.3 50.9a2.3 2.3 0 0 0 2.3 2.3h74.5a2.3 2.3 0 1 0 0-4.6H37.6a2.3 2.3 0 0 0-2.3 2.3zm0 11.5a2.3 2.3 0 0 0 2.3 2.3h74.5a2.3 2.3 0 1 0 0-4.6H37.6a2.3 2.3 0 0 0-2.3 2.3zm52.7-23a2.3 2.3 0 0 0 2.3 2.3h21.8a2.3 2.3 0 0 0 0-4.6H90.3a2.3 2.3 0 0 0-2.3 2.3zm24.1-13.9H90.3a2.3 2.3 0 0 0 0 4.6h21.8a2.3 2.3 0 0 0 0-4.6zm2.3-9.1a2.3 2.3 0 0 0-2.3-2.3H90.3a2.3 2.3 0 0 0 0 4.6h21.8a2.3 2.3 0 0 0 2.3-2.3zM88 96.9a2.3 2.3 0 0 0 2.3 2.3h21.8a2.3 2.3 0 1 0 0-4.6H90.3a2.3 2.3 0 0 0-2.3 2.3zm0-11.5a2.3 2.3 0 0 0 2.3 2.3h21.8a2.3 2.3 0 1 0 0-4.6H90.3a2.3 2.3 0 0 0-2.3 2.3zm0-11.5a2.3 2.3 0 0 0 2.3 2.3h21.8a2.3 2.3 0 1 0 0-4.6H90.3a2.3 2.3 0 0 0-2.3 2.3zM61.7 39.4a2.3 2.3 0 0 0-2.3-2.4H37.6a2.3 2.3 0 0 0 0 4.6h21.8a2.3 2.3 0 0 0 2.3-2.2zm0-11.5a2.3 2.3 0 0 0-2.3-2.3H37.6a2.3 2.3 0 0 0 0 4.6h21.8a2.3 2.3 0 0 0 2.3-2.3zm-2.3-9.2a2.3 2.3 0 0 0 0-4.6H37.6a2.3 2.3 0 0 0 0 4.6zM35.3 96.9a2.3 2.3 0 0 0 2.3 2.3h21.8a2.3 2.3 0 0 0 0-4.6H37.6a2.3 2.3 0 0 0-2.3 2.3zm0-11.5a2.3 2.3 0 0 0 2.3 2.3h21.8a2.3 2.3 0 0 0 0-4.6H37.6a2.3 2.3 0 0 0-2.3 2.3zm2.3-9.2h21.8a2.3 2.3 0 0 0 0-4.6H37.6a2.3 2.3 0 1 0 0 4.6zm100.3-13.1V28.2a1.4 1.4 0 0 1 .8-1.3 4.6 4.6 0 0 1 4 0 1.4 1.4 0 0 1 .8 1.3v14.6h13.1V28.2a1.4 1.4 0 0 1 .8-1.3 4.6 4.6 0 0 1 4 0 1.4 1.4 0 0 1 .8 1.3v34.9a1.5 1.5 0 0 1-.8 1.3 4.1 4.1 0 0 1-3.9 0 1.5 1.5 0 0 1-.8-1.3V47.2h-13.3v15.9a1.5 1.5 0 0 1-.8 1.3 4.1 4.1 0 0 1-3.9 0 1.5 1.5 0 0 1-.8-1.3zM173 30.8a2.7 2.7 0 0 1 .9-2.1 3.5 3.5 0 0 1 4.5 0 2.7 2.7 0 0 1 0 4.1 3.4 3.4 0 0 1-4.5 0 2.7 2.7 0 0 1-.9-2zm.5 32.3V41.8a1.5 1.5 0 0 1 .8-1.3 3.6 3.6 0 0 1 2-.5 3.7 3.7 0 0 1 2 .5 1.5 1.5 0 0 1 .8 1.3v21.3a1.6 1.6 0 0 1-.8 1.3 3.3 3.3 0 0 1-2 .6 3.2 3.2 0 0 1-2-.6 1.6 1.6 0 0 1-.8-1.3zm16.2-9.6V38.2q0-6.1 3.2-8.9a12.3 12.3 0 0 1 8.4-2.8 13.5 13.5 0 0 1 8.7 2.7 8.6 8.6 0 0 1 3.3 7.1 2.7 2.7 0 0 1-.7 2.1 3.2 3.2 0 0 1-2.1.6q-2.7 0-2.8-1.8-.6-5.6-6.3-5.6t-6.2 6.8v15.1q0 6.8 6.2 6.8a6.1 6.1 0 0 0 4.6-1.7 7.2 7.2 0 0 0 1.6-5.1v-4.4h-5.3a1.5 1.5 0 0 1-1.3-.7 2.6 2.6 0 0 1-.5-1.6 2.6 2.6 0 0 1 .5-1.5 1.5 1.5 0 0 1 1.3-.7h9.1a1.7 1.7 0 0 1 1.3.6 1.9 1.9 0 0 1 .5 1.3v6.9q0 6.1-3.2 8.9a14.4 14.4 0 0 1-17.2 0q-3.1-2.7-3.1-8.8zm34.7 9.6V28.2a1.4 1.4 0 0 1 .8-1.3 4.6 4.6 0 0 1 4 0 1.4 1.4 0 0 1 .8 1.3v14.6h13.1V28.2a1.4 1.4 0 0 1 .8-1.3 4.6 4.6 0 0 1 4 0 1.4 1.4 0 0 1 .8 1.3v34.9a1.5 1.5 0 0 1-.8 1.3 4.1 4.1 0 0 1-3.9 0 1.5 1.5 0 0 1-.8-1.3V47.2H230v15.9a1.5 1.5 0 0 1-.8 1.3 4.1 4.1 0 0 1-3.9 0 1.5 1.5 0 0 1-.9-1.3zm36.3.9V41a.8.8 0 0 1 .9-.9q.9 0 .9.9v2.8a7.6 7.6 0 0 1 7.1-4 8.2 8.2 0 0 1 4.8 1.4 9.1 9.1 0 0 1 3.1 3.8 9.6 9.6 0 0 1 3.5-3.9 8.5 8.5 0 0 1 4.5-1.3 8.3 8.3 0 0 1 6.1 2.6 9.4 9.4 0 0 1 2.6 6.9V64a1 1 0 0 1-.9.9.8.8 0 0 1-.6-.3 1 1 0 0 1-.3-.7V49.2a7.5 7.5 0 0 0-2.1-5.6 6.7 6.7 0 0 0-4.8-2 7.2 7.2 0 0 0-7.1 7.3v15.2c0 .6-.3.9-.9.9a.8.8 0 0 1-.9-.9V49a7.4 7.4 0 0 0-2-5.2 6.3 6.3 0 0 0-4.8-2.1 7 7 0 0 0-5 2.1 7.4 7.4 0 0 0-2.2 5.5V64a1 1 0 0 1-.9.9.8.8 0 0 1-.6-.3 1 1 0 0 1-.4-.6zm44.5-8.3v-6.6a9.5 9.5 0 0 1 9.4-9.3 9.4 9.4 0 0 1 9.3 9.5 6.4 6.4 0 0 1-.3 2.2 2.1 2.1 0 0 1-1.1 1.2l-1.3.4H307v2.5a7 7 0 0 0 2.5 5.6 9.6 9.6 0 0 0 6.4 2.1 8.5 8.5 0 0 0 3.3-.6 8.6 8.6 0 0 0 2-1.1 2 2 0 0 1 1-.5.9.9 0 0 1 .7.3.9.9 0 0 1 .3.6q0 .5-.8 1.2a7.7 7.7 0 0 1-2.6 1.3 12.6 12.6 0 0 1-3.8.6 11.1 11.1 0 0 1-7.7-2.7 8.9 8.9 0 0 1-3.1-6.7zm1.8-4.3h11.9a5.7 5.7 0 0 0 2.6-.4q.6-.4.6-1.6A8 8 0 0 0 320 44a6.8 6.8 0 0 0-5.4-2.4 7.2 7.2 0 0 0-5.4 2.2A7.3 7.3 0 0 0 307 49zm26.6 4.3v-6.5a9.5 9.5 0 0 1 9.5-9.5 7.6 7.6 0 0 1 7.1 4V25.4q0-.9.9-.9a.8.8 0 0 1 .9.9V64a1 1 0 0 1-.3.7.8.8 0 0 1-.6.3 1 1 0 0 1-.9-.9v-2.8a7.3 7.3 0 0 1-2.9 2.8 8.3 8.3 0 0 1-4.3 1.2 8.9 8.9 0 0 1-6.6-2.9 9.3 9.3 0 0 1-2.8-6.7zm1.8 0a7.6 7.6 0 0 0 2.2 5.4 6.9 6.9 0 0 0 5.2 2.4 7.2 7.2 0 0 0 5.1-2.1q2.2-2.1 2.2-3.7v-8.5a7.3 7.3 0 0 0-2.2-5.5 7.1 7.1 0 0 0-10.3.2 7.5 7.5 0 0 0-2.2 5.3zM157.6 95.3H156V79.7l-6.8 15.6h-1.5l-6.5-15.6v15.6h-1.6V79.1a.8.8 0 0 1 .3-.7l.5-.2h1.5l.4.2.3.3.2.5 5.7 13.7h.1l5.9-13.6.3-.5.3-.4.4-.2h1.9l.2.3a1 1 0 0 1 .1.4zm14.6-6.7a.8.8 0 0 1-.3.7l-.5.2h-8.2a8.6 8.6 0 0 0 .2 2 4 4 0 0 0 .7 1.6 3.2 3.2 0 0 0 1.3 1 5.1 5.1 0 0 0 2 .3h1.6l1.2-.3.8-.3h.7v.2a2.3 2.3 0 0 1 0 .3v.3h-.2l-.4.2-.9.3-1.3.3h-1.6a6.8 6.8 0 0 1-2.5-.4 4.7 4.7 0 0 1-1.8-1.2 5.4 5.4 0 0 1-1.1-2 9.4 9.4 0 0 1-.4-2.8 8.9 8.9 0 0 1 .4-2.7 5.9 5.9 0 0 1 1.1-2.1 4.8 4.8 0 0 1 1.8-1.3 5.7 5.7 0 0 1 2.3-.4 5.4 5.4 0 0 1 2.3.5 4.5 4.5 0 0 1 1.6 1.2 4.9 4.9 0 0 1 .9 1.8 7.8 7.8 0 0 1 .3 2.1zm-1.6-.5a4.3 4.3 0 0 0-.9-3A3.3 3.3 0 0 0 167 84a3.5 3.5 0 0 0-2.8 1.2 4 4 0 0 0-.7 1.3 5.6 5.6 0 0 0-.3 1.5zm15 7.2v.2h-1.4v-2a8.5 8.5 0 0 1-2 1.6 4.4 4.4 0 0 1-2.2.6 4.5 4.5 0 0 1-2.2-.5 4.2 4.2 0 0 1-1.5-1.4 6 6 0 0 1-.8-2 11 11 0 0 1-.3-2.5 10.6 10.6 0 0 1 .3-2.8 6.1 6.1 0 0 1 1-2.1 4.4 4.4 0 0 1 1.6-1.3 5 5 0 0 1 2.2-.5 4.2 4.2 0 0 1 2 .5 7 7 0 0 1 1.8 1.4v-7.1h1.6zm-1.6-8.8a9.8 9.8 0 0 0-1.9-1.9 3.4 3.4 0 0 0-1.9-.6 2.8 2.8 0 0 0-1.6.4 3.4 3.4 0 0 0-1.1 1.2 5.4 5.4 0 0 0-.6 1.6 9.1 9.1 0 0 0-.2 1.8 11.7 11.7 0 0 0 .2 1.9 5.6 5.6 0 0 0 .5 1.7 3.2 3.2 0 0 0 1 1.2 2.7 2.7 0 0 0 1.6.4h.9l.9-.4 1-.8 1.1-1.2zm7.9-7.4a1.2 1.2 0 0 1-.2.9 1.2 1.2 0 0 1-.8.2 1.1 1.1 0 0 1-.8-.2 1.8 1.8 0 0 1 0-1.7 1.2 1.2 0 0 1 .8-.2 1.1 1.1 0 0 1 .8.2 1.2 1.2 0 0 1 .2.8zm-.2 16.1H190v-12h1.6zm12.8-1.7a2.8 2.8 0 0 1 0 .3v.4l-.2.2-.6.4-.9.5-1.1.3h-1.2a5.5 5.5 0 0 1-2.2-.4 4.2 4.2 0 0 1-1.6-1.2 5.7 5.7 0 0 1-1-2 10.1 10.1 0 0 1-.3-2.8 9.5 9.5 0 0 1 .4-3 5.6 5.6 0 0 1 1.2-2.1 4.5 4.5 0 0 1 1.7-1.2 5.7 5.7 0 0 1 2.1-.4h1.1l1 .3.8.4.5.4.2.3v.4a2.9 2.9 0 0 1 0 .3.9.9 0 0 1-.1.5l-.2.2-.5-.2-.7-.5-1-.5-1.4-.2a3.1 3.1 0 0 0-2.7 1.3 6.6 6.6 0 0 0-.9 3.9 8.7 8.7 0 0 0 .3 2.2 4.6 4.6 0 0 0 .7 1.6 3 3 0 0 0 1.2.9 3.6 3.6 0 0 0 1.5.3l1.4-.3 1.1-.6.8-.6.4-.3h.2v.2a2.4 2.4 0 0 1 0 1zm11.4 1.8v.2h-1.2v-1.6a6.1 6.1 0 0 1-1.8 1.4 4.6 4.6 0 0 1-2 .5l-1.7-.2a3.6 3.6 0 0 1-1.3-.7 3.1 3.1 0 0 1-.8-1.1 3.7 3.7 0 0 1-.3-1.5 3.3 3.3 0 0 1 1.6-3 5.7 5.7 0 0 1 1.8-.7l2.4-.2h1.9v-1a5.3 5.3 0 0 0-.2-1.4 2.4 2.4 0 0 0-.5-1 2.2 2.2 0 0 0-.9-.6l-1.4-.2-1.4.2-1.1.4-.8.4-.4.2h-.3V85a1.6 1.6 0 0 1 0-.3 2 2 0 0 1 0-.4l.2-.3.6-.4 1-.4 1.2-.3h1.3a6.4 6.4 0 0 1 2.1.3 3.4 3.4 0 0 1 1.4.9 3.2 3.2 0 0 1 .8 1.4 7 7 0 0 1 .2 1.9zm-1.6-5.7h-2.2l-1.7.2-1.2.5a2.1 2.1 0 0 0-.7.8 2.4 2.4 0 0 0-.2 1.1 2.2 2.2 0 0 0 .7 1.7 2.6 2.6 0 0 0 1.9.6 3.4 3.4 0 0 0 1.8-.5 7.9 7.9 0 0 0 1.7-1.5zm7.5 5.7h-1.6v-18h1.6zm12.6 0h-1.6V78.5h1.6zm14.5 0h-1.6v-7.2a7.8 7.8 0 0 0-.2-1.8 3.6 3.6 0 0 0-.5-1.2 2.4 2.4 0 0 0-.9-.8 2.8 2.8 0 0 0-1.3-.3 3.2 3.2 0 0 0-1.8.7 10 10 0 0 0-1.9 1.9v8.7h-1.6V83.2h1.5v1.7a7.5 7.5 0 0 1 2-1.7 4.3 4.3 0 0 1 2-.5 4.5 4.5 0 0 1 2 .4 3.5 3.5 0 0 1 1.3 1.1 4.4 4.4 0 0 1 .7 1.6 9.4 9.4 0 0 1 .2 2.2zM259.4 78a1.8 1.8 0 0 1 0 .3v.2h-2l-.9.2a1.4 1.4 0 0 0-.6.6 2.8 2.8 0 0 0-.3 1 9.6 9.6 0 0 0-.1 1.5v1.4h3.2v.2a1.5 1.5 0 0 1 0 .3.9.9 0 0 1-.1.5l-.3.2h-3v11h-1.6v-11h-1.8l-.3-.2a1 1 0 0 1-.1-.5 1.4 1.4 0 0 1 0-.3v-.2h2.1v-1.7a8.9 8.9 0 0 1 .2-2.2 3.7 3.7 0 0 1 .7-1.5 2.6 2.6 0 0 1 1.2-.8l1.6-.3h.9l.6.2.3.2v.4a2.3 2.3 0 0 1 .3.5zm11.9 11.1a9 9 0 0 1-.4 2.7 6.1 6.1 0 0 1-1.1 2.1 5.1 5.1 0 0 1-1.8 1.4 6.2 6.2 0 0 1-2.6.5 6.3 6.3 0 0 1-2.5-.4 4.7 4.7 0 0 1-1.8-1.3 5.5 5.5 0 0 1-1.1-2 9.4 9.4 0 0 1-.4-2.7 9.1 9.1 0 0 1 .4-2.7 5.9 5.9 0 0 1 1.1-2.1 5 5 0 0 1 1.8-1.4 6.3 6.3 0 0 1 2.6-.5 6.4 6.4 0 0 1 2.5.4 4.6 4.6 0 0 1 1.8 1.3 5.6 5.6 0 0 1 1.1 2 9.2 9.2 0 0 1 .4 2.7zm-1.7.1a9.3 9.3 0 0 0-.2-2 4.8 4.8 0 0 0-.7-1.6 3.3 3.3 0 0 0-1.3-1.1 4.1 4.1 0 0 0-2-.4 4.2 4.2 0 0 0-1.9.4 3.4 3.4 0 0 0-1.3 1.1 4.7 4.7 0 0 0-.7 1.6 8 8 0 0 0-.2 2 9.5 9.5 0 0 0 .2 2 4.8 4.8 0 0 0 .7 1.6 3.3 3.3 0 0 0 1.3 1.1 4.8 4.8 0 0 0 3.8 0 3.5 3.5 0 0 0 1.3-1.1 4.6 4.6 0 0 0 .7-1.6 8.1 8.1 0 0 0 .4-2zm12-5.4v.5h-1.9l-.7.2-.7.5-.8.9-.9 1.4v8.2H275V83.2h1.5v1.9l1-1.2.8-.7.8-.4h2.6v.2c-.1.6-.1.7-.1.8zm19.9 11.5h-1.6v-7.5a7.3 7.3 0 0 0-.2-1.6 3.6 3.6 0 0 0-.5-1.2 2.3 2.3 0 0 0-.8-.8 2.4 2.4 0 0 0-1.2-.3 2.8 2.8 0 0 0-1.7.7 11.5 11.5 0 0 0-1.9 1.9v8.7H292v-7.4a7 7 0 0 0-.2-1.6 3.7 3.7 0 0 0-.5-1.2 2.3 2.3 0 0 0-.8-.8 2.4 2.4 0 0 0-1.2-.3 2.8 2.8 0 0 0-1.7.7 11.2 11.2 0 0 0-1.9 1.9v8.7h-1.6v-12h1.5v1.7a8 8 0 0 1 2-1.7 3.8 3.8 0 0 1 1.9-.5l1.4.2 1 .5.8.8a4.3 4.3 0 0 1 .5 1l1.2-1.2 1.1-.8 1-.4h.9a4.2 4.2 0 0 1 1.9.4 3.4 3.4 0 0 1 1.3 1.1 4.5 4.5 0 0 1 .7 1.6 8.6 8.6 0 0 1 .2 1.9zm12.8 0v.2H313v-1.6a6.1 6.1 0 0 1-1.8 1.4 4.6 4.6 0 0 1-2 .5l-1.7-.2a3.6 3.6 0 0 1-1.3-.7 3.1 3.1 0 0 1-.8-1.1 3.7 3.7 0 0 1-.3-1.5 3.3 3.3 0 0 1 1.6-3 5.7 5.7 0 0 1 1.8-.7l2.4-.2h1.9v-1a5.3 5.3 0 0 0-.2-1.4 2.4 2.4 0 0 0-.5-1 2.2 2.2 0 0 0-.9-.6l-1.4-.2-1.4.2-1.1.4-.8.4-.4.2h-.3V85a1.6 1.6 0 0 1 0-.3 2 2 0 0 1 0-.4l.2-.3.6-.4 1-.4 1.2-.3h1.3a6.4 6.4 0 0 1 2.1.3 3.4 3.4 0 0 1 1.4.9 3.2 3.2 0 0 1 .8 1.4 7 7 0 0 1 .2 1.9zm-1.6-5.7h-2.2l-1.7.2-1.2.5a2.1 2.1 0 0 0-.7.8 2.4 2.4 0 0 0-.2 1.1 2.2 2.2 0 0 0 .7 1.7 2.6 2.6 0 0 0 1.9.6 3.4 3.4 0 0 0 1.8-.5 7.9 7.9 0 0 0 1.7-1.5zm15.6-6.7l.4.2a.7.7 0 0 1 .1.4v11.8h-1.6v-11h-6.7v7.3a4.4 4.4 0 0 0 .4 2.1 1.5 1.5 0 0 0 1.4.7h1.8v.2a1.7 1.7 0 0 1 0 .3 1.8 1.8 0 0 1 0 .5v.3l-.3.2h-1.5l-1.5-.2a2.4 2.4 0 0 1-1-.7 3 3 0 0 1-.6-1.2 7.6 7.6 0 0 1-.2-1.8v-7.7h-1.8l-.3-.2a.9.9 0 0 1-.1-.5 1.5 1.5 0 0 1 0-.3v-.2h2.2V80h1.6v3zm.8-3.8a1.2 1.2 0 0 1-.2.9 1.2 1.2 0 0 1-.8.2 1.1 1.1 0 0 1-.8-.2 1.8 1.8 0 0 1 0-1.7 1.2 1.2 0 0 1 .8-.2 1.1 1.1 0 0 1 .8.2 1.2 1.2 0 0 1 .2.8zm12.6 14.4a2.8 2.8 0 0 1 0 .3v.4l-.2.2-.6.4-.9.5-1.1.3h-1.2a5.5 5.5 0 0 1-2.2-.4 4.2 4.2 0 0 1-1.6-1.2 5.7 5.7 0 0 1-1-2 10.1 10.1 0 0 1-.3-2.8 9.5 9.5 0 0 1 .4-3 5.6 5.6 0 0 1 1.2-2.1 4.5 4.5 0 0 1 1.7-1.2 5.7 5.7 0 0 1 2.1-.4h1.1l1 .3.8.4.5.4.2.3v.4a2.9 2.9 0 0 1 0 .3.9.9 0 0 1-.1.5l-.2.2-.5-.2-.7-.5-1-.5-1.4-.2a3.1 3.1 0 0 0-2.7 1.3 6.6 6.6 0 0 0-.9 3.9 8.7 8.7 0 0 0 .3 2.2 4.6 4.6 0 0 0 .7 1.6 3 3 0 0 0 1.2.9 3.6 3.6 0 0 0 1.5.3l1.4-.3 1.1-.6.8-.6.4-.3h.2v.2a2.4 2.4 0 0 1 0 1zM352 92a3.6 3.6 0 0 1-.3 1.6 3.3 3.3 0 0 1-.9 1.2 4.2 4.2 0 0 1-1.4.7l-1.8.3h-1.2l-1-.3-.8-.3-.5-.3-.2-.3a1.7 1.7 0 0 1-.1-.5 1.6 1.6 0 0 1 0-.3v-.2h.3l.4.2.7.4 1 .4 1.3.2h1.1l.9-.4a1.8 1.8 0 0 0 .6-.7 2.2 2.2 0 0 0 .2-1 1.6 1.6 0 0 0-.3-.9l-.7-.7-1-.5-1.1-.5-1.1-.5-1-.7a3 3 0 0 1-1-2.3 3.3 3.3 0 0 1 .2-1.2 3.1 3.1 0 0 1 .7-1.1 3.7 3.7 0 0 1 1.3-.8 5.3 5.3 0 0 1 1.8-.3h.9l.8.2.6.3.4.2.2.2V84a2.4 2.4 0 0 1 0 .3 1.8 1.8 0 0 1 0 .3v.2h-.6l-.6-.3-.8-.3h-2.2l-.8.4a1.7 1.7 0 0 0-.5.6 2 2 0 0 0-.2.8 1.7 1.7 0 0 0 .3 1l.7.7 1 .5 1.1.5 1.1.5 1 .7a3 3 0 0 1 .7.9 2.9 2.9 0 0 1 .8 1.2z"/></svg>